<?xml version="1.0" encoding="utf-8"?>
<!-- Generator: Adobe Illustrator 16.0.4, SVG Export Plug-In . SVG Version: 6.00 Build 0)  -->
<!DOCTYPE svg PUBLIC "-//W3C//DTD SVG 1.1//EN" "http://www.w3.org/Graphics/SVG/1.1/DTD/svg11.dtd">
<svg version="1.1" id="Layer_1" xmlns="http://www.w3.org/2000/svg" xmlns:xlink="http://www.w3.org/1999/xlink" x="0px" y="0px"
	 width="20px" height="20px" viewBox="0 0 20 20" enable-background="new 0 0 20 20" xml:space="preserve">
<g>
	<path d="M10.7,5.687C9.326,5.936,7.671,5.546,6.672,5.124C5.674,4.703,2.146,3.314,1.63,3.11C1.115,2.907,1.364,2.407,2.16,2.283
		c0.797-0.125,7.382-1.204,7.728-1.25c0.936-0.125,1.327-0.125,2.138,0.125c0.812,0.249,5.48,1.732,5.934,1.904
		c0.452,0.171,0.396,0.669-0.391,0.858C16.726,4.125,11.293,5.578,10.7,5.687z"/>
	<path d="M6.095,7.903c0.476,0.301,1.546,1.857,1.546,3.373c0,1.514,0.016,6.588,0.016,7.134c0,0.547-0.484,1.467-1.25,0.766
		c-0.765-0.703-4.949-4.544-5.23-4.762c-0.281-0.22-0.453-1.219-0.483-1.827c-0.032-0.608-0.032-6.869-0.032-7.243
		c0-0.375,0.546-0.796,1.155-0.391C2.426,5.358,5.626,7.606,6.095,7.903z"/>
	<path d="M11.605,8.277c0.496-0.152,6.666-2.56,7.072-2.716c0.405-0.156,1.014,0.219,0.983,1.233
		c-0.031,1.015-0.016,6.776-0.016,7.151c0,1.389-0.968,2.544-1.671,2.824c-0.702,0.281-6.135,2.826-6.65,3.076
		c-0.515,0.249-1.686-0.157-1.686-1.358c0-1.202,0.015-6.791,0.015-7.572C9.654,10.135,10.591,8.589,11.605,8.277z"/>
</g>
</svg>
