<?xml version="1.0" encoding="utf-8"?>
<!-- Generator: Adobe Illustrator 16.0.4, SVG Export Plug-In . SVG Version: 6.00 Build 0)  -->
<!DOCTYPE svg PUBLIC "-//W3C//DTD SVG 1.1//EN" "http://www.w3.org/Graphics/SVG/1.1/DTD/svg11.dtd">
<svg version="1.1" id="Layer_1" xmlns="http://www.w3.org/2000/svg" xmlns:xlink="http://www.w3.org/1999/xlink" x="0px" y="0px"
	 width="20px" height="20px" viewBox="0 0 20 20" enable-background="new 0 0 20 20" xml:space="preserve">
<path d="M16.023,20H3.977C1.784,20,0,18.216,0,16.023V3.978C0,1.784,1.784,0,3.977,0h12.047C18.216,0,20,1.784,20,3.978v12.046
	C20,18.216,18.216,20,16.023,20z M3.977,0.723c-1.794,0-3.254,1.46-3.254,3.254v12.046c0,1.794,1.46,3.254,3.254,3.254h12.047
	c1.794,0,3.254-1.46,3.254-3.254V3.978c0-1.794-1.46-3.254-3.254-3.254H3.977z"/>
</svg>
