<?xml version="1.0" encoding="utf-8"?>
<!-- Generator: Adobe Illustrator 16.0.4, SVG Export Plug-In . SVG Version: 6.00 Build 0)  -->
<!DOCTYPE svg PUBLIC "-//W3C//DTD SVG 1.1//EN" "http://www.w3.org/Graphics/SVG/1.1/DTD/svg11.dtd">
<svg version="1.1" id="Layer_1" xmlns="http://www.w3.org/2000/svg" xmlns:xlink="http://www.w3.org/1999/xlink" x="0px" y="0px"
	 width="20px" height="20px" viewBox="0 0 20 20" enable-background="new 0 0 20 20" xml:space="preserve">
<g>
	<path d="M19.896,18.86c0.14-0.141,0.14-0.366,0-0.504l-8.105-8.105c-0.137-0.139-0.137-0.365,0-0.502l8.105-8.105
		c0.138-0.138,0.138-0.365,0-0.502l-1.038-1.038c-0.138-0.138-0.364-0.138-0.502,0l-8.104,8.105c-0.138,0.137-0.364,0.137-0.503,0
		L1.643,0.103c-0.139-0.138-0.364-0.138-0.503,0L0.104,1.141c-0.138,0.137-0.138,0.363,0,0.502l8.105,8.105
		c0.139,0.138,0.139,0.364,0,0.502l-8.105,8.105c-0.138,0.139-0.138,0.364,0,0.502l1.038,1.038c0.138,0.137,0.364,0.137,0.503,0
		l8.104-8.104c0.139-0.139,0.364-0.139,0.503,0l8.104,8.104c0.139,0.139,0.365,0.139,0.503,0L19.896,18.86z"/>
</g>
</svg>
