<?xml version="1.0" encoding="utf-8"?>
<!-- Generator: Adobe Illustrator 16.0.4, SVG Export Plug-In . SVG Version: 6.00 Build 0)  -->
<!DOCTYPE svg PUBLIC "-//W3C//DTD SVG 1.1//EN" "http://www.w3.org/Graphics/SVG/1.1/DTD/svg11.dtd">
<svg version="1.1" id="Layer_1" xmlns="http://www.w3.org/2000/svg" xmlns:xlink="http://www.w3.org/1999/xlink" x="0px" y="0px"
	 width="20px" height="20px" viewBox="0 0 20 20" enable-background="new 0 0 20 20" xml:space="preserve">
<path d="M18.902,14.69c-0.453-0.906-5.736-11.22-6.984-13.185C10.672-0.459,8.5-0.19,7.517,1.17
	C6.536,2.532,1.351,13.571,0.72,14.712C-0.914,17.669,0.361,20,3.252,20c2.352,0,9.236,0,13.166,0
	C20.35,20,19.355,15.598,18.902,14.69z"/>
<g>
	<path fill="#FFFFFF" d="M9.714,14.763c0.883,0,1.608,0.724,1.608,1.605c0,0.883-0.725,1.608-1.608,1.608s-1.605-0.726-1.605-1.608
		C8.109,15.486,8.832,14.763,9.714,14.763z"/>
	<path fill="#FFFFFF" d="M11.264,7.208c0,0.294-0.039,0.607-0.078,0.922l-0.607,4.584c-0.08,0.569-0.354,0.726-0.864,0.726
		s-0.783-0.156-0.862-0.726L8.245,8.13C8.206,7.815,8.167,7.502,8.167,7.208V4.936c0-1,0.568-1.509,1.547-1.509
		c0.98,0,1.549,0.51,1.549,1.509V7.208z"/>
</g>
</svg>
