<?xml version="1.0" encoding="utf-8"?>
<!-- Generator: Adobe Illustrator 16.0.4, SVG Export Plug-In . SVG Version: 6.00 Build 0)  -->
<!DOCTYPE svg PUBLIC "-//W3C//DTD SVG 1.1//EN" "http://www.w3.org/Graphics/SVG/1.1/DTD/svg11.dtd">
<svg version="1.1" id="Layer_1" xmlns="http://www.w3.org/2000/svg" xmlns:xlink="http://www.w3.org/1999/xlink" x="0px" y="0px"
	 width="20px" height="20px" viewBox="0 0 20 20" enable-background="new 0 0 20 20" xml:space="preserve">
<path d="M19.746,8.927l-9.109-8.685C10.461,0.076,10.232-0.003,10.003,0c-0.23-0.006-0.464,0.074-0.64,0.242l-9.11,8.685
	c-0.337,0.322-0.337,0.846,0,1.168l0.222,0.211c0.338,0.324,0.888,0.324,1.226,0l8.3-7.911l8.298,7.911
	c0.34,0.324,0.889,0.324,1.227,0l0.224-0.209C20.085,9.771,20.085,9.25,19.746,8.927z"/>
<path d="M10,5.325L3,10.09v7.697C3,18.947,3.727,20,4.718,20H8v-6h4v6h2.768C15.758,20,17,18.947,17,17.787V10.09L10,5.325z"/>
<polygon points="17.303,5.248 14.303,2.982 14.303,0.848 17.303,0.848 "/>
</svg>
