<?xml version="1.0" encoding="utf-8"?>
<!-- Generator: Adobe Illustrator 16.0.4, SVG Export Plug-In . SVG Version: 6.00 Build 0)  -->
<!DOCTYPE svg PUBLIC "-//W3C//DTD SVG 1.1//EN" "http://www.w3.org/Graphics/SVG/1.1/DTD/svg11.dtd">
<svg version="1.1" id="Layer_1" xmlns="http://www.w3.org/2000/svg" xmlns:xlink="http://www.w3.org/1999/xlink" x="0px" y="0px"
	 width="20px" height="20px" viewBox="0 0 20 20" enable-background="new 0 0 20 20" xml:space="preserve">
<g>
	<g>
		<polygon points="17.299,4.421 13.619,4.423 13.617,0.788 		"/>
		<path d="M12.551,7C11.447,7,11,6.24,11,5.135V0H4.551C3.447,0,3,1.03,3,2.135v16C3,19.24,3.447,20,4.551,20h11
			C16.656,20,18,19.24,18,18.135V7H12.551z"/>
	</g>
	<g>
		<polygon points="17.299,4.421 13.619,4.423 13.617,0.788 		"/>
		<path d="M12.551,7C11.447,7,11,6.24,11,5.135V0H4.551C3.447,0,3,1.03,3,2.135v16C3,19.24,3.447,20,4.551,20h11
			C16.656,20,18,19.24,18,18.135V7H12.551z"/>
	</g>
</g>
</svg>
