<?xml version="1.0" encoding="utf-8"?>
<!-- Generator: Adobe Illustrator 16.0.4, SVG Export Plug-In . SVG Version: 6.00 Build 0)  -->
<!DOCTYPE svg PUBLIC "-//W3C//DTD SVG 1.1//EN" "http://www.w3.org/Graphics/SVG/1.1/DTD/svg11.dtd">
<svg version="1.1" id="Layer_1" xmlns="http://www.w3.org/2000/svg" xmlns:xlink="http://www.w3.org/1999/xlink" x="0px" y="0px"
	 width="20px" height="20px" viewBox="0 0 20 20" enable-background="new 0 0 20 20" xml:space="preserve">
<path d="M13.589,7.049c0-1.564,2.796-2.025,2.796-3.205c0-0.795-1.103-2.359-4.744-2.359C8,1.484,1,4.048,1,10.511
	c0,4.923,5.538,7.614,9.026,7.614c4.846,0,8.949-3.46,8.949-6.562C18.975,8.127,13.589,9.435,13.589,7.049z M5.211,14.626
	c-1.048,0-1.898-0.849-1.898-1.896c0-1.049,0.851-1.897,1.898-1.897s1.897,0.851,1.897,1.897
	C7.108,13.775,6.258,14.626,5.211,14.626z M5.365,9.241c-1.048,0-1.897-0.849-1.897-1.897c0-1.047,0.849-1.896,1.897-1.896
	c1.047,0,1.897,0.851,1.897,1.896C7.263,8.392,6.412,9.241,5.365,9.241z M10.134,16.779c-1.047,0-1.897-0.85-1.897-1.896
	c0-1.049,0.85-1.898,1.897-1.898c1.048,0,1.897,0.852,1.897,1.898C12.031,15.932,11.182,16.779,10.134,16.779z M10.75,6.78
	c-1.047,0-1.897-0.849-1.897-1.897c0-1.047,0.85-1.897,1.897-1.897c1.048,0,1.896,0.851,1.896,1.897
	C12.646,5.931,11.798,6.78,10.75,6.78z M14.596,14.011c-1.048,0-1.896-0.851-1.896-1.896c0-1.049,0.85-1.898,1.896-1.898
	c1.051,0,1.898,0.85,1.898,1.898C16.494,13.16,15.646,14.011,14.596,14.011z"/>
</svg>
