<?xml version="1.0" encoding="utf-8"?>
<!-- Generator: Adobe Illustrator 16.0.4, SVG Export Plug-In . SVG Version: 6.00 Build 0)  -->
<!DOCTYPE svg PUBLIC "-//W3C//DTD SVG 1.1//EN" "http://www.w3.org/Graphics/SVG/1.1/DTD/svg11.dtd">
<svg version="1.1" id="Layer_1" xmlns="http://www.w3.org/2000/svg" xmlns:xlink="http://www.w3.org/1999/xlink" x="0px" y="0px"
	 width="20px" height="20px" viewBox="0 0 20 20" enable-background="new 0 0 20 20" xml:space="preserve">
<g>
	<g>
		<path d="M11.842,5.792c0,1.121-0.906,2.027-2.026,2.027c-1.118,0-2.026-0.906-2.026-2.027c0-1.117,0.908-2.024,2.026-2.024
			C10.936,3.768,11.842,4.675,11.842,5.792z"/>
		<circle cx="13.239" cy="2.375" r="1.655"/>
		<circle cx="17.134" cy="6.317" r="1.655"/>
		<circle cx="17.109" cy="13.408" r="1.655"/>
		<circle cx="13.263" cy="17.451" r="1.655"/>
		<circle cx="5.999" cy="17.252" r="1.655"/>
		<circle cx="2.205" cy="13.383" r="1.655"/>
		<circle cx="2.255" cy="6.243" r="1.655"/>
		<circle cx="0.676" cy="9.837" r="0.676"/>
		<circle cx="19.325" cy="9.837" r="0.675"/>
		<circle cx="9.988" cy="0.675" r="0.675"/>
		<circle cx="9.987" cy="19.174" r="0.675"/>
		<circle cx="6.149" cy="2.348" r="1.655"/>
		<circle cx="9.815" cy="13.832" r="2.026"/>
		<circle cx="13.86" cy="9.862" r="2.026"/>
		<circle cx="5.698" cy="9.862" r="2.027"/>
	</g>
	<g>
		<path d="M11.842,5.792c0,1.121-0.906,2.027-2.026,2.027c-1.118,0-2.026-0.906-2.026-2.027c0-1.117,0.908-2.024,2.026-2.024
			C10.936,3.768,11.842,4.675,11.842,5.792z"/>
		<circle cx="13.239" cy="2.375" r="1.655"/>
		<circle cx="17.134" cy="6.317" r="1.655"/>
		<circle cx="17.109" cy="13.408" r="1.655"/>
		<circle cx="13.263" cy="17.451" r="1.655"/>
		<circle cx="5.999" cy="17.252" r="1.655"/>
		<circle cx="2.205" cy="13.383" r="1.655"/>
		<circle cx="2.255" cy="6.243" r="1.655"/>
		<circle cx="0.676" cy="9.837" r="0.676"/>
		<circle cx="19.325" cy="9.837" r="0.675"/>
		<circle cx="9.988" cy="0.675" r="0.675"/>
		<circle cx="9.987" cy="19.174" r="0.675"/>
		<circle cx="6.149" cy="2.348" r="1.655"/>
		<circle cx="9.815" cy="13.832" r="2.026"/>
		<circle cx="13.86" cy="9.862" r="2.026"/>
		<circle cx="5.698" cy="9.862" r="2.027"/>
	</g>
</g>
</svg>
