<?xml version="1.0" encoding="utf-8"?>
<!-- Generator: Adobe Illustrator 16.0.4, SVG Export Plug-In . SVG Version: 6.00 Build 0)  -->
<!DOCTYPE svg PUBLIC "-//W3C//DTD SVG 1.1//EN" "http://www.w3.org/Graphics/SVG/1.1/DTD/svg11.dtd">
<svg version="1.1" id="Layer_1" xmlns="http://www.w3.org/2000/svg" xmlns:xlink="http://www.w3.org/1999/xlink" x="0px" y="0px"
	 width="20px" height="20px" viewBox="0 0 20 20" enable-background="new 0 0 20 20" xml:space="preserve">
<g>
	<path d="M12.171,12.315c-0.895,0.728-2.031,1.162-3.272,1.162c-1.182,0-2.266-0.396-3.139-1.062C3.005,13.673,0,14.287,0,17.519
		C0,18.902,4.663,20,9.081,20c4.413,0,9.076-1.186,9.076-2.481C18.157,14.201,15.049,13.524,12.171,12.315z"/>
	<path d="M8.813,0c3.577,0.012,5.054,2.985,4.353,6.51c-0.625,3.186-2.542,4.857-4.284,4.852c-1.739-0.006-3.971-1.734-4.471-4.883
		C3.85,2.926,5.083-0.011,8.813,0z"/>
</g>
</svg>
