<?xml version="1.0" encoding="utf-8"?>
<!-- Generator: Adobe Illustrator 16.0.0, SVG Export Plug-In . SVG Version: 6.00 Build 0)  -->
<!DOCTYPE svg PUBLIC "-//W3C//DTD SVG 1.1//EN" "http://www.w3.org/Graphics/SVG/1.1/DTD/svg11.dtd">
<svg version="1.1" id="Layer_1" xmlns="http://www.w3.org/2000/svg" xmlns:xlink="http://www.w3.org/1999/xlink" x="0px" y="0px"
	 width="20px" height="20px" viewBox="0 0 20 20" enable-background="new 0 0 20 20" xml:space="preserve">
<path d="M10.002,0.698c5.135,0,9.301,4.164,9.301,9.298c0,5.14-4.166,9.306-9.301,9.306c-5.139,0-9.305-4.166-9.305-9.306
	C0.698,4.862,4.864,0.698,10.002,0.698 M10.002,0C4.486,0,0,4.485,0,9.997C0,15.514,4.486,20,10.002,20
	C15.516,20,20,15.514,20,9.997C20,4.486,15.516,0,10.002,0L10.002,0z"/>
<circle cx="10.063" cy="10.009" r="6.062"/>
</svg>
