<?xml version="1.0" encoding="utf-8"?>
<!-- Generator: Adobe Illustrator 16.0.4, SVG Export Plug-In . SVG Version: 6.00 Build 0)  -->
<!DOCTYPE svg PUBLIC "-//W3C//DTD SVG 1.1//EN" "http://www.w3.org/Graphics/SVG/1.1/DTD/svg11.dtd">
<svg version="1.1" id="Layer_1" xmlns="http://www.w3.org/2000/svg" xmlns:xlink="http://www.w3.org/1999/xlink" x="0px" y="0px"
	 width="20px" height="20px" viewBox="0 0 20 20" enable-background="new 0 0 20 20" xml:space="preserve">
<g>
	<g>
		<g>
			<path d="M19.363,18.671c0.351-0.359,0.345-0.943-0.013-1.297l-4.764-4.714c-0.357-0.354-0.46-1.008-0.229-1.453
				c0,0,1.013-1.952,1.013-3.598C15.37,3.401,11.924,0,7.681,0C3.436,0,0,3.401,0,7.609c0,4.198,3.436,7.604,7.681,7.604
				c1.699,0,3.73-1.057,3.73-1.057c0.446-0.231,1.103-0.132,1.46,0.221l4.789,4.735c0.357,0.353,0.936,0.347,1.286-0.013
				L19.363,18.671z M2.354,7.609c0-2.914,2.379-5.273,5.326-5.273c2.939,0,5.327,2.36,5.327,5.273c0,2.913-2.388,5.271-5.327,5.271
				C4.733,12.88,2.354,10.521,2.354,7.609z"/>
		</g>
	</g>
</g>
</svg>
