<?xml version="1.0" encoding="utf-8"?>
<!-- Generator: Adobe Illustrator 16.0.4, SVG Export Plug-In . SVG Version: 6.00 Build 0)  -->
<!DOCTYPE svg PUBLIC "-//W3C//DTD SVG 1.1//EN" "http://www.w3.org/Graphics/SVG/1.1/DTD/svg11.dtd">
<svg version="1.1" id="Layer_1" xmlns="http://www.w3.org/2000/svg" xmlns:xlink="http://www.w3.org/1999/xlink" x="0px" y="0px"
	 width="20px" height="20px" viewBox="0 0 20 20" enable-background="new 0 0 20 20" xml:space="preserve">
<g>
	<path d="M16.891,2.368h-3.895l-0.564-2.032C12.354,0.133,12.16,0,11.941,0H7.909C7.692,0,7.497,0.133,7.421,0.336L6.855,2.368H2.96
		c-0.537,0-0.973,0.436-0.973,0.974c0,0.535,0.436,0.973,0.973,0.973h13.931c0.539,0,0.973-0.438,0.973-0.973
		C17.863,2.804,17.43,2.368,16.891,2.368 M7.972,2.368l0.301-1.325h3.308l0.301,1.325H7.972z"/>
	<path d="M2.897,18.963C2.897,19.535,3.364,20,3.935,20H15.68c0.572,0,1.037-0.465,1.037-1.037V5.489H2.897V18.963z M13.062,8.255
		c0-0.423,0.352-0.763,0.781-0.763c0.434,0,0.783,0.34,0.783,0.763v8.896c0,0.421-0.35,0.761-0.783,0.761
		c-0.43,0-0.781-0.34-0.781-0.761V8.255z M9.038,8.255c0-0.423,0.349-0.763,0.783-0.763c0.43,0,0.781,0.34,0.781,0.763v8.896
		c0,0.421-0.352,0.761-0.781,0.761c-0.435,0-0.783-0.34-0.783-0.761V8.255z M4.997,8.255c0-0.423,0.349-0.763,0.781-0.763
		c0.432,0,0.783,0.34,0.783,0.763v8.896c0,0.421-0.352,0.761-0.783,0.761c-0.433,0-0.781-0.34-0.781-0.761V8.255z"/>
</g>
</svg>
