<?xml version="1.0" encoding="utf-8"?>
<!-- Generator: Adobe Illustrator 16.0.0, SVG Export Plug-In . SVG Version: 6.00 Build 0)  -->
<!DOCTYPE svg PUBLIC "-//W3C//DTD SVG 1.1//EN" "http://www.w3.org/Graphics/SVG/1.1/DTD/svg11.dtd">
<svg version="1.1" id="Layer_1" xmlns="http://www.w3.org/2000/svg" xmlns:xlink="http://www.w3.org/1999/xlink" x="0px" y="0px"
	 width="21.792px" height="19.427px" viewBox="0 0 21.792 19.427" enable-background="new 0 0 21.792 19.427" xml:space="preserve">
<linearGradient id="SVGID_1_" gradientUnits="userSpaceOnUse" x1="10.896" y1="19.8672" x2="10.896" y2="-4.8079">
	<stop  offset="0" style="stop-color:#F04D24"/>
	<stop  offset="0.3002" style="stop-color:#E23B27"/>
	<stop  offset="0.6715" style="stop-color:#D92928"/>
	<stop  offset="1" style="stop-color:#D62328"/>
</linearGradient>
<path fill="url(#SVGID_1_)" d="M11.984,0.421C11.854,0.2,11.496,0.013,11.251,0c-0.225,0-0.523,0.141-0.599,0.262
	C6.741,6.83,0.389,17.603,0.009,18.529c-0.069,0.199,0.291,0.732,0.555,0.897l10.688-0.016l10.086-0.013
	c0.215-0.171,0.492-0.612,0.451-0.755C21.433,17.713,15.575,6.959,11.984,0.421z M11.991,17.67l-2.425-0.001l0.009-2.33l2.424,0.025
	L11.991,17.67z M12.004,13.465l-2.421-0.042l0.027-6.745l2.42,0.001L12.004,13.465z"/>
</svg>
